@startuml
'https://plantuml.com/class-diagram'

GetApparatusLambda -- GetApparatusActivity
GetApparatusActivity -- GetApparatusDAO

SaveApparatusLambda -- SaveApparatusActivity
SaveApparatusActivity -- SaveApparatusDAO

GetHosesLambda -- GetHosesActivity
GetHosesActivity -- GetHosesDAO

SaveHoseLambda -- SaveHoseActivity
SaveHoseActivity -- SaveHoseDAO

UpdateHoseLambda -- UpdateHoseActivity
UpdateHoseActivity -- UpdateHoseDAO

class GetApparatusLambda {
String username[primary key]

LambdaResponse handleRequest(AuthenticatedLambdaRequest<GetApparatusRequest>, Context)
}

class GetApparatusRequest {}

class GetApparatusResponse {
String response
}

class GetApparatusActivity {
GetApparatusDao

GetApparatusResult handleRequest(GetApparatusRequest)
}

class GetApparatusDAO {
DynamoDBMapper

List<Apparatus> getApparatus(userName, ApparatusTypeAndNumber)
}




class SaveApparatusLambda {
String username[primary key]
String apparatusTypeAndNumber[sort key]
String fireDept

LambdaResponse handleRequest(AuthenticatedLambdaRequest<SaveApparatusRequest>, Context)
}

class SaveApparatusRequest {}

class SaveApparatusResponse {
String response
}

class SaveApparatusActivity {
SaveApparatusDao

SaveApparatusResult handleRequest(SaveApparatusRequest)
}

class SaveApparatusDAO {
DynamoDBMapper

Apparatus saveApparatus(Apparatus)
}




class GetHosesLambda {
String userName[primary key]
String apparatusTypeAndNumber[sort key]

LambdaResponse handleRequest(AuthenticatedLambdaRequest<GetHosesRequest>, Context)
}

class GetHosesRequest {}

class GetHosesResponse {
String response
}

class GetHosesActivity {
GetHosesDao

GetHosesResult handleRequest(GetHosesRequest)
}

class GetHosesDAO {
DynamoDBMapper

List<Hoses> getHoses(userName, ApparatusTypeAndNumber)
}



class SaveHoseLambda {
String userName[primary key]
String apparatusTypeAndNumber[sort key]
Hose

LambdaResponse handleRequest(AuthenticatedLambdaRequest<SaveHoseRequest>, Context)
}

class SaveHoseRequest {}

class SaveHoseResponse {
String response
}

class SaveHoseActivity {
SaveHosesDao

SaveHoseResult handleRequest(SaveHoseRequest)
}

class SaveHoseDAO {
DynamoDBMapper

Hose saveHose(userName, ApparatusTypeAndNumber, Hose)
}




class UpdateHoseLambda {
String userName[primary key]
String apparatusTypeAndNumber[sort key]
Hose

LambdaResponse handleRequest(AuthenticatedLambdaRequest<UpdateHoseRequest>, Context)
}

class UpdateHoseRequest {}

class UpdateHoseResponse {
String response
}

class UpdateHoseActivity {
UpdateHosesDao

UpdateHoseResult handleRequest(UpdateHoseRequest)
}

class UpdateHoseDAO {
DynamoDBMapper

Hose UpdateHose(userName, ApparatusTypeAndNumber, Hose)
}




class Apparatus {
String username[primary key]
String apparatusTypeAndNumber[sort key]
String fireDept
List<Hose>
}

class CoefficientModel {
Double hoseDiameter[primary key]
Double coefficient
}

class ApparatusModel {
String username[primary key]
String apparatusTypeAndNumber[sort key]
String fireDept
List<Hose>
}

class HoseModel {
String uuid[primary key]
String name
String color
int length
Double hoseDiameter
int waterQuantityInGallons
int pumpDischargePressure
}

enum HoseDiameter {
INCH_AND_HALF(1.5)
INCH_THREE_QUARTER(1.75)
TWO_INCH(2)
TWO_AND_HALF(2.5)
THREE_INCH(3)
}

enum Colors {
WHITE
GREEN
RED
YELLOW
ORANGE
BLUE
PURPLE
BLACK
BROWN
}

enum Nozzles {
FOG(100)
SMOOTH_BORE(50)
}

enum HoseLengths {
FIFTY(50)
ONE_HUNDRED(100)
ONE_FIFTY(150)
TWO_HUNDRED(200)
TWO_FIFTY(250)
THREE_HUNDRED(300)
THREE_FIFTY(350)
FOUR_HUNDRED(400)
FOUR_FIFTY(450)
FIVE_HUNDRED(500)
}

@enduml